ffmpeg version 6.1-essentials_build-www.gyan.dev Copyright (c) 2000-2023 the FFmpeg developers
  built with gcc 12.2.0 (Rev10, Built by MSYS2 project)
  configuration: --enable-gpl --enable-version3 --enable-static --pkg-config=pkgconf --disable-w32threads --disable-autodetect --enable-fontconfig --enable-iconv --enable-gnutls --enable-libxml2 --enable-gmp --enable-bzlib --enable-lzma --enable-zlib --enable-libsrt --enable-libssh --enable-libzmq --enable-avisynth --enable-sdl2 --enable-libwebp --enable-libx264 --enable-libx265 --enable-libxvid --enable-libaom --enable-libopenjpeg --enable-libvpx --enable-mediafoundation --enable-libass --enable-libfreetype --enable-libfribidi --enable-libharfbuzz --enable-libvidstab --enable-libvmaf --enable-libzimg --enable-amf --enable-cuda-llvm --enable-cuvid --enable-ffnvcodec --enable-nvdec --enable-nvenc --enable-dxva2 --enable-d3d11va --enable-libvpl --enable-libgme --enable-libopenmpt --enable-libopencore-amrwb --enable-libmp3lame --enable-libtheora --enable-libvo-amrwbenc --enable-libgsm --enable-libopencore-amrnb --enable-libopus --enable-libspeex --enable-libvorbis --enable-librubberband
  libavutil      58. 29.100 / 58. 29.100
  libavcodec     60. 31.102 / 60. 31.102
  libavformat    60. 16.100 / 60. 16.100
  libavdevice    60.  3.100 / 60.  3.100
  libavfilter     9. 12.100 /  9. 12.100
  libswscale      7.  5.100 /  7.  5.100
  libswresample   4. 12.100 /  4. 12.100
  libpostproc    57.  3.100 / 57.  3.100
Input #0, rawvideo, from 'fd:':
  Duration: N/A, start: 0.000000, bitrate: 3981312 kb/s
  Stream #0:0: Video: rawvideo (BGRA / 0x41524742), bgra, 1920x1080, 3981312 kb/s, 60 tbr, 60 tbn
Stream mapping:
  Stream #0:0 -> #0:0 (rawvideo (native) -> h264 (libx264))
[libx264 @ 000002143b891780] using cpu capabilities: MMX2 SSE2Fast SSSE3 SSE4.2 AVX FMA3 BMI2 AVX2
[libx264 @ 000002143b891780] profile High, level 4.2, 4:2:0, 8-bit
[libx264 @ 000002143b891780] 264 - core 164 r3161 a354f11 - H.264/MPEG-4 AVC codec - Copyleft 2003-2023 - http://www.videolan.org/x264.html - options: cabac=1 ref=3 deblock=1:0:0 analyse=0x3:0x113 me=hex subme=7 psy=1 psy_rd=1.00:0.00 mixed_ref=1 me_range=16 chroma_me=1 trellis=1 8x8dct=1 cqm=0 deadzone=21,11 fast_pskip=1 chroma_qp_offset=-2 threads=12 lookahead_threads=2 sliced_threads=0 nr=0 decimate=1 interlaced=0 bluray_compat=0 constrained_intra=0 bframes=3 b_pyramid=2 b_adapt=1 b_bias=0 direct=1 weightb=1 open_gop=0 weightp=2 keyint=250 keyint_min=25 scenecut=40 intra_refresh=0 rc_lookahead=40 rc=abr mbtree=1 bitrate=20971 ratetol=1.0 qcomp=0.60 qpmin=0 qpmax=69 qpstep=4 ip_ratio=1.40 aq=1:1.00
Output #0, mp4, to '2023_12_11_23_18_24.mp4':
  Metadata:
    encoder         : Lavf60.16.100
  Stream #0:0: Video: h264 (avc1 / 0x31637661), yuv420p(tv, progressive), 1920x1080, q=2-31, 20971 kb/s, 60 fps, 15360 tbn
    Metadata:
      encoder         : Lavc60.31.102 libx264
    Side data:
      cpb: bitrate max/min/avg: 0/0/20971000 buffer size: 0 vbv_delay: N/A
frame=    0 fps=0.0 q=0.0 size=       0kB time=N/A bitrate=N/A speed=N/A    frame=    0 fps=0.0 q=0.0 size=       0kB time=N/A bitrate=N/A speed=N/A    frame=    0 fps=0.0 q=0.0 size=       0kB time=N/A bitrate=N/A speed=N/A    frame=    0 fps=0.0 q=0.0 size=       0kB time=N/A bitrate=N/A speed=N/A    frame=    0 fps=0.0 q=0.0 size=       0kB time=N/A bitrate=N/A speed=N/A    frame=    5 fps=1.9 q=19.0 size=       0kB time=00:00:00.05 bitrate=   7.7kbits/s speed=0.0192x    frame=   19 fps=6.1 q=4.0 size=       0kB time=00:00:00.26 bitrate=   1.4kbits/s speed=0.085x    frame=   30 fps=8.2 q=0.0 size=       0kB time=00:00:00.46 bitrate=   0.8kbits/s speed=0.128x    frame=   43 fps= 10 q=0.0 size=       0kB time=00:00:00.68 bitrate=   0.6kbits/s speed=0.164x    frame=   56 fps= 12 q=0.0 size=       0kB time=00:00:00.90 bitrate=   0.4kbits/s speed=0.192x    frame=   69 fps= 13 q=0.0 size=       0kB time=00:00:01.11 bitrate=   0.3kbits/s speed=0.214x    frame=   84 fps= 15 q=0.0 size=       0kB time=00:00:01.35 bitrate=   0.3kbits/s speed=0.235x    frame=   98 fps= 16 q=0.0 size=       0kB time=00:00:01.58 bitrate=   0.2kbits/s speed=0.252x    frame=  110 fps= 16 q=0.0 size=       0kB time=00:00:01.80 bitrate=   0.2kbits/s speed=0.265x    frame=  124 fps= 17 q=0.0 size=       0kB time=00:00:02.01 bitrate=   0.2kbits/s speed=0.277x    frame=  141 fps= 18 q=0.0 size=       0kB time=00:00:02.30 bitrate=   0.2kbits/s speed=0.295x    frame=  154 fps= 19 q=0.0 size=       0kB time=00:00:02.51 bitrate=   0.2kbits/s speed=0.303x    frame=  171 fps= 19 q=0.0 size=       0kB time=00:00:02.81 bitrate=   0.1kbits/s speed=0.318x    frame=  183 fps= 20 q=0.0 size=       0kB time=00:00:03.01 bitrate=   0.1kbits/s speed=0.322x    frame=  200 fps= 20 q=0.0 size=       0kB time=00:00:03.30 bitrate=   0.1kbits/s speed=0.334x    frame=  216 fps= 21 q=0.0 size=       0kB time=00:00:03.56 bitrate=   0.1kbits/s speed=0.343x    frame=  228 fps= 21 q=0.0 size=       0kB time=00:00:03.76 bitrate=   0.1kbits/s speed=0.344x    frame=  243 fps= 21 q=0.0 size=       0kB time=00:00:04.01 bitrate=   0.1kbits/s speed=0.35x    frame=  258 fps= 21 q=0.0 size=     256kB time=00:00:04.26 bitrate= 491.6kbits/s speed=0.355x    frame=  270 fps= 22 q=0.0 size=     256kB time=00:00:04.46 bitrate= 469.6kbits/s speed=0.356x    frame=  286 fps= 22 q=0.0 size=     256kB time=00:00:04.73 bitrate= 443.1kbits/s speed=0.362x    frame=  298 fps= 22 q=0.0 size=     256kB time=00:00:04.91 bitrate= 426.6kbits/s speed=0.362x    frame=  310 fps= 22 q=0.0 size=     256kB time=00:00:05.11 bitrate= 409.9kbits/s speed=0.363x    frame=  322 fps= 22 q=0.0 size=     256kB time=00:00:05.31 bitrate= 394.5kbits/s speed=0.364x    frame=  333 fps= 22 q=0.0 size=     256kB time=00:00:05.51 bitrate= 380.2kbits/s speed=0.365x    frame=  341 fps= 22 q=0.0 size=     256kB time=00:00:05.65 bitrate= 371.2kbits/s speed=0.361x    frame=  354 fps= 22 q=0.0 size=     256kB time=00:00:05.86 bitrate= 357.5kbits/s speed=0.363x    frame=  366 fps= 22 q=0.0 size=     256kB time=00:00:06.06 bitrate= 345.7kbits/s speed=0.364x    frame=  379 fps= 22 q=0.0 size=     256kB time=00:00:06.26 bitrate= 334.7kbits/s speed=0.363x    frame=  387 fps= 22 q=0.0 size=     256kB time=00:00:06.41 bitrate= 326.9kbits/s speed=0.36x    frame=  396 fps= 22 q=0.0 size=     256kB time=00:00:06.56 bitrate= 319.4kbits/s speed=0.358x    frame=  405 fps= 21 q=0.0 size=     256kB time=00:00:06.70 bitrate= 313.1kbits/s speed=0.352x    frame=  413 fps= 21 q=0.0 size=     256kB time=00:00:06.85 bitrate= 306.2kbits/s speed=0.351x    frame=  422 fps= 21 q=0.0 size=     256kB time=00:00:07.00 bitrate= 299.6kbits/s speed=0.349x    frame=  432 fps= 21 q=0.0 size=     256kB time=00:00:07.16 bitrate= 292.7kbits/s speed=0.347x    frame=  440 fps= 21 q=0.0 size=     256kB time=00:00:07.30 bitrate= 287.3kbits/s speed=0.342x    frame=  452 fps= 21 q=0.0 size=     256kB time=00:00:07.50 bitrate= 279.7kbits/s speed=0.343x    frame=  465 fps= 21 q=0.0 size=     256kB time=00:00:07.71 bitrate= 271.8kbits/s speed=0.345x    frame=  479 fps= 21 q=0.0 size=     256kB time=00:00:07.95 bitrate= 263.8kbits/s speed=0.347x    frame=  494 fps= 21 q=0.0 size=     256kB time=00:00:08.20 bitrate= 255.8kbits/s speed=0.349x    frame=  500 fps= 21 q=0.0 size=     256kB time=00:00:08.28 bitrate= 253.2kbits/s speed=0.342x    frame=  511 fps= 21 q=0.0 size=     512kB time=00:00:08.48 bitrate= 494.5kbits/s speed=0.341x    frame=  524 fps= 21 q=0.0 size=     512kB time=00:00:08.70 bitrate= 482.1kbits/s speed=0.342x    frame=  541 fps= 21 q=0.0 size=     512kB time=00:00:08.98 bitrate= 466.9kbits/s speed=0.346x    frame=  559 fps= 21 q=0.0 size=     512kB time=00:00:09.28 bitrate= 451.9kbits/s speed=0.351x    frame=  575 fps= 21 q=0.0 size=     512kB time=00:00:09.55 bitrate= 439.2kbits/s speed=0.353x    frame=  589 fps= 21 q=0.0 size=     512kB time=00:00:09.78 bitrate= 428.8kbits/s speed=0.355x    frame=  606 fps= 22 q=0.0 size=     512kB time=00:00:10.06 bitrate= 416.7kbits/s speed=0.359x    frame=  624 fps= 22 q=0.0 size=     512kB time=00:00:10.35 bitrate= 405.3kbits/s speed=0.362x    frame=  641 fps= 22 q=0.0 size=     512kB time=00:00:10.63 bitrate= 394.5kbits/s speed=0.365x    frame=  656 fps= 22 q=0.0 size=     512kB time=00:00:10.90 bitrate= 384.8kbits/s speed=0.368x    frame=  671 fps= 22 q=0.0 size=     512kB time=00:00:11.13 bitrate= 376.8kbits/s speed=0.369x    frame=  687 fps= 22 q=0.0 size=     512kB time=00:00:11.41 bitrate= 367.4kbits/s speed=0.371x    frame=  706 fps= 23 q=0.0 size=     512kB time=00:00:11.73 bitrate= 357.5kbits/s speed=0.375x    frame=  723 fps= 23 q=0.0 size=     512kB time=00:00:12.01 bitrate= 349.1kbits/s speed=0.378x    frame=  736 fps= 23 q=0.0 size=     512kB time=00:00:12.23 bitrate= 342.9kbits/s speed=0.379x    frame=  751 fps= 23 q=0.0 size=     512kB time=00:00:12.48 bitrate= 336.0kbits/s speed=0.38x    frame=  769 fps= 23 q=0.0 size=     768kB time=00:00:12.78 bitrate= 492.2kbits/s speed=0.384x    frame=  786 fps= 23 q=0.0 size=     768kB time=00:00:13.06 bitrate= 481.5kbits/s speed=0.386x    frame=  800 fps= 23 q=0.0 size=     768kB time=00:00:13.30 bitrate= 473.1kbits/s speed=0.387x    frame=  817 fps= 23 q=0.0 size=     768kB time=00:00:13.56 bitrate= 463.8kbits/s speed=0.389x    frame=  832 fps= 24 q=0.0 size=     768kB time=00:00:13.83 bitrate= 454.8kbits/s speed=0.391x    frame=  847 fps= 24 q=0.0 size=     768kB time=00:00:14.08 bitrate= 446.8kbits/s speed=0.392x    frame=  861 fps= 24 q=0.0 size=     768kB time=00:00:14.31 bitrate= 439.5kbits/s speed=0.393x    frame=  879 fps= 24 q=0.0 size=     768kB time=00:00:14.60 bitrate= 430.9kbits/s speed=0.395x    frame=  894 fps= 24 q=0.0 size=     768kB time=00:00:14.86 bitrate= 423.2kbits/s speed=0.395x    frame=  911 fps= 24 q=0.0 size=     768kB time=00:00:15.13 bitrate= 415.8kbits/s speed=0.396x    frame=  924 fps= 24 q=0.0 size=     768kB time=00:00:15.36 bitrate= 409.4kbits/s speed=0.397x    frame=  940 fps= 24 q=0.0 size=     768kB time=00:00:15.61 bitrate= 402.9kbits/s speed=0.398x    frame=  955 fps= 24 q=0.0 size=     768kB time=00:00:15.86 bitrate= 396.5kbits/s speed=0.399x    frame=  968 fps= 24 q=0.0 size=     768kB time=00:00:16.10 bitrate= 390.8kbits/s speed= 0.4x    frame=  985 fps= 24 q=0.0 size=     768kB time=00:00:16.38 bitrate= 384.0kbits/s speed=0.401x    frame= 1001 fps= 24 q=0.0 size=     768kB time=00:00:16.65 bitrate= 377.9kbits/s speed=0.403x    frame= 1017 fps= 24 q=0.0 size=    1024kB time=00:00:16.91 bitrate= 495.9kbits/s speed=0.404x    frame= 1033 fps= 24 q=0.0 size=    1024kB time=00:00:17.16 bitrate= 488.7kbits/s speed=0.405x    frame= 1049 fps= 24 q=0.0 size=    1024kB time=00:00:17.43 bitrate= 481.2kbits/s speed=0.406x    frame= 1067 fps= 25 q=0.0 size=    1024kB time=00:00:17.73 bitrate= 473.1kbits/s speed=0.408x    frame= 1083 fps= 25 q=0.0 size=    1024kB time=00:00:18.01 bitrate= 465.6kbits/s speed=0.41x    frame= 1100 fps= 25 q=0.0 size=    1024kB time=00:00:18.30 bitrate= 458.4kbits/s speed=0.411x    frame= 1118 fps= 25 q=0.0 size=    1024kB time=00:00:18.58 bitrate= 451.4kbits/s speed=0.413x    frame= 1133 fps= 25 q=0.0 size=    1024kB time=00:00:18.85 bitrate= 445.0kbits/s speed=0.414x    frame= 1147 fps= 25 q=0.0 size=    1024kB time=00:00:19.08 bitrate= 439.6kbits/s speed=0.414x    frame= 1164 fps= 25 q=0.0 size=    1024kB time=00:00:19.35 bitrate= 433.5kbits/s speed=0.416x    frame= 1179 fps= 25 q=0.0 size=    1024kB time=00:00:19.61 bitrate= 427.6kbits/s speed=0.416x    frame= 1195 fps= 25 q=0.0 size=    1024kB time=00:00:19.88 bitrate= 421.9kbits/s speed=0.418x    frame= 1213 fps= 25 q=0.0 size=    1024kB time=00:00:20.16 bitrate= 416.0kbits/s speed=0.419x    frame= 1225 fps= 25 q=0.0 size=    1024kB time=00:00:20.38 bitrate= 411.6kbits/s speed=0.419x    frame= 1240 fps= 25 q=0.0 size=    1024kB time=00:00:20.61 bitrate= 406.9kbits/s speed=0.419x    frame= 1254 fps= 25 q=0.0 size=    1280kB time=00:00:20.86 bitrate= 502.5kbits/s speed=0.42x    frame= 1270 fps= 25 q=0.0 size=    1280kB time=00:00:21.13 bitrate= 496.2kbits/s speed=0.421x    frame= 1287 fps= 25 q=0.0 size=    1280kB time=00:00:21.40 bitrate= 490.0kbits/s speed=0.422x    frame= 1304 fps= 25 q=0.0 size=    1280kB time=00:00:21.68 bitrate= 483.6kbits/s speed=0.423x    frame= 1320 fps= 26 q=0.0 size=    1280kB time=00:00:21.95 bitrate= 477.7kbits/s speed=0.424x    frame= 1331 fps= 25 q=0.0 size=    1280kB time=00:00:22.15 bitrate= 473.4kbits/s speed=0.423x    frame= 1345 fps= 25 q=0.0 size=    1280kB time=00:00:22.38 bitrate= 468.5kbits/s speed=0.423x    frame= 1362 fps= 26 q=0.0 size=    1280kB time=00:00:22.65 bitrate= 463.0kbits/s speed=0.424x    frame= 1377 fps= 26 q=0.0 size=    1280kB time=00:00:22.91 bitrate= 457.6kbits/s speed=0.425x    frame= 1394 fps= 26 q=0.0 size=    1280kB time=00:00:23.20 bitrate= 452.0kbits/s speed=0.426x    frame= 1411 fps= 26 q=0.0 size=    1280kB time=00:00:23.48 bitrate= 446.5kbits/s speed=0.427x    frame= 1423 fps= 26 q=0.0 size=    1280kB time=00:00:23.68 bitrate= 442.8kbits/s speed=0.426x    frame= 1437 fps= 26 q=0.0 size=    1280kB time=00:00:23.91 bitrate= 438.4kbits/s speed=0.427x    frame= 1454 fps= 26 q=0.0 size=    1280kB time=00:00:24.20 bitrate= 433.3kbits/s speed=0.428x    frame= 1472 fps= 26 q=0.0 size=    1280kB time=00:00:24.48 bitrate= 428.3kbits/s speed=0.429x    frame= 1487 fps= 26 q=0.0 size=    1280kB time=00:00:24.75 bitrate= 423.7kbits/s speed=0.429x    frame= 1502 fps= 26 q=0.0 size=    1536kB time=00:00:24.98 bitrate= 503.7kbits/s speed=0.429x    frame= 1519 fps= 26 q=0.0 size=    1536kB time=00:00:25.28 bitrate= 497.7kbits/s speed=0.431x    frame= 1534 fps= 26 q=0.0 size=    1536kB time=00:00:25.53 bitrate= 492.8kbits/s speed=0.431x    frame= 1548 fps= 26 q=0.0 size=    1536kB time=00:00:25.75 bitrate= 488.7kbits/s speed=0.431x    frame= 1564 fps= 26 q=0.0 size=    1536kB time=00:00:26.03 bitrate= 483.4kbits/s speed=0.432x    frame= 1582 fps= 26 q=0.0 size=    1536kB time=00:00:26.31 bitrate= 478.1kbits/s speed=0.433x    frame= 1599 fps= 26 q=0.0 size=    1536kB time=00:00:26.61 bitrate= 472.8kbits/s speed=0.434x    frame= 1611 fps= 26 q=0.0 size=    1536kB time=00:00:26.81 bitrate= 469.2kbits/s speed=0.434x    frame= 1622 fps= 26 q=0.0 size=    1536kB time=00:00:27.00 bitrate= 466.0kbits/s speed=0.432x    frame= 1638 fps= 26 q=0.0 size=    1536kB time=00:00:27.26 bitrate= 461.5kbits/s speed=0.433x    frame= 1654 fps= 26 q=0.0 size=    1536kB time=00:00:27.53 bitrate= 457.0kbits/s speed=0.434x    frame= 1669 fps= 26 q=0.0 size=    1536kB time=00:00:27.76 bitrate= 453.2kbits/s speed=0.434x    frame= 1686 fps= 26 q=0.0 size=    1536kB time=00:00:28.06 bitrate= 448.3kbits/s speed=0.435x    frame= 1701 fps= 26 q=0.0 size=    1536kB time=00:00:28.30 bitrate= 444.6kbits/s speed=0.435x    frame= 1717 fps= 26 q=0.0 size=    1536kB time=00:00:28.58 bitrate= 440.2kbits/s speed=0.436x    frame= 1736 fps= 26 q=0.0 size=    1536kB time=00:00:28.88 bitrate= 435.7kbits/s speed=0.437x    frame= 1751 fps= 26 q=0.0 size=    1536kB time=00:00:29.15 bitrate= 431.7kbits/s speed=0.437x    frame= 1762 fps= 26 q=0.0 size=    1792kB time=00:00:29.33 bitrate= 500.5kbits/s speed=0.437x    frame= 1779 fps= 26 q=0.0 size=    1792kB time=00:00:29.60 bitrate= 496.0kbits/s speed=0.437x    frame= 1795 fps= 26 q=0.0 size=    1792kB time=00:00:29.86 bitrate= 491.5kbits/s speed=0.438x    frame= 1811 fps= 26 q=0.0 size=    1792kB time=00:00:30.15 bitrate= 486.9kbits/s speed=0.438x    frame= 1826 fps= 26 q=0.0 size=    1792kB time=00:00:30.40 bitrate= 482.9kbits/s speed=0.439x    frame= 1837 fps= 26 q=0.0 size=    1792kB time=00:00:30.58 bitrate= 480.0kbits/s speed=0.438x    frame= 1852 fps= 26 q=0.0 size=    1792kB time=00:00:30.81 bitrate= 476.4kbits/s speed=0.438x    frame= 1866 fps= 26 q=0.0 size=    1792kB time=00:00:31.06 bitrate= 472.5kbits/s speed=0.439x    frame= 1882 fps= 26 q=0.0 size=    1792kB time=00:00:31.33 bitrate= 468.5kbits/s speed=0.439x    frame= 1897 fps= 26 q=0.0 size=    1792kB time=00:00:31.58 bitrate= 464.8kbits/s speed=0.439x    frame= 1913 fps= 26 q=0.0 size=    1792kB time=00:00:31.85 bitrate= 460.9kbits/s speed=0.44x    frame= 1920 fps= 26 q=0.0 size=    1792kB time=00:00:31.95 bitrate= 459.5kbits/s speed=0.437x    frame= 1932 fps= 26 q=0.0 size=    1792kB time=00:00:32.16 bitrate= 456.4kbits/s speed=0.437x    frame= 1945 fps= 26 q=0.0 size=    1792kB time=00:00:32.38 bitrate= 453.3kbits/s speed=0.437x    frame= 1962 fps= 26 q=0.0 size=    1792kB time=00:00:32.66 bitrate= 449.4kbits/s speed=0.438x    frame= 1979 fps= 26 q=0.0 size=    1792kB time=00:00:32.95 bitrate= 445.5kbits/s speed=0.439x    frame= 1994 fps= 26 q=0.0 size=    1792kB time=00:00:33.20 bitrate= 442.2kbits/s speed=0.439x    frame= 2009 fps= 26 q=0.0 size=    1792kB time=00:00:33.45 bitrate= 438.9kbits/s speed=0.439x    frame= 2023 fps= 26 q=0.0 size=    1792kB time=00:00:33.68 bitrate= 435.8kbits/s speed=0.44x    frame= 2039 fps= 26 q=0.0 size=    1792kB time=00:00:33.95 bitrate= 432.4kbits/s speed=0.44x    frame= 2056 fps= 26 q=0.0 size=    1792kB time=00:00:34.23 bitrate= 428.8kbits/s speed=0.441x    frame= 2074 fps= 26 q=0.0 size=    1792kB time=00:00:34.51 bitrate= 425.3kbits/s speed=0.441x    frame= 2090 fps= 27 q=0.0 size=    2048kB time=00:00:34.78 bitrate= 482.3kbits/s speed=0.441x    frame= 2099 fps= 26 q=0.0 size=    2048kB time=00:00:34.95 bitrate= 480.0kbits/s speed=0.44x    frame= 2115 fps= 26 q=0.0 size=    2048kB time=00:00:35.20 bitrate= 476.6kbits/s speed=0.441x    frame= 2131 fps= 26 q=0.0 size=    2048kB time=00:00:35.46 bitrate= 473.1kbits/s speed=0.441x    frame= 2146 fps= 27 q=0.0 size=    2048kB time=00:00:35.73 bitrate= 469.5kbits/s speed=0.441x    frame= 2164 fps= 27 q=0.0 size=    2048kB time=00:00:36.03 bitrate= 465.6kbits/s speed=0.442x    frame= 2178 fps= 27 q=0.0 size=    2048kB time=00:00:36.26 bitrate= 462.6kbits/s speed=0.442x    frame= 2196 fps= 27 q=0.0 size=    2048kB time=00:00:36.55 bitrate= 459.0kbits/s speed=0.443x    frame= 2212 fps= 27 q=0.0 size=    2048kB time=00:00:36.81 bitrate= 455.7kbits/s speed=0.443x    [out#0/mp4 @ 000002143b87e400] video:2455kB audio:0kB subtitle:0kB other streams:0kB global headers:0kB muxing overhead: 1.120382%
frame= 2278 fps= 27 q=-1.0 Lsize=    2482kB time=00:00:37.91 bitrate= 536.3kbits/s speed=0.451x    
[libx264 @ 000002143b891780] frame I:10    Avg QP: 0.80  size:199753
[libx264 @ 000002143b891780] frame P:577   Avg QP: 0.05  size:   400
[libx264 @ 000002143b891780] frame B:1691  Avg QP: 0.10  size:   169
[libx264 @ 000002143b891780] consecutive B-frames:  0.9%  0.3%  0.1% 98.7%
[libx264 @ 000002143b891780] mb I  I16..4: 91.9%  8.1%  0.0%
[libx264 @ 000002143b891780] mb P  I16..4:  0.0%  0.0%  0.0%  P16..4:  0.2%  0.0%  0.0%  0.0%  0.0%    skip:99.7%
[libx264 @ 000002143b891780] mb B  I16..4:  0.0%  0.0%  0.0%  B16..8:  0.0%  0.0%  0.0%  direct: 0.0%  skip:100.0%  L0:48.8% L1:44.6% BI: 6.7%
[libx264 @ 000002143b891780] final ratefactor: -36.18
[libx264 @ 000002143b891780] 8x8 transform intra:8.2% inter:17.7%
[libx264 @ 000002143b891780] coded y,uvDC,uvAC intra: 100.0% 0.0% 0.0% inter: 0.1% 0.0% 0.0%
[libx264 @ 000002143b891780] i16 v,h,dc,p: 98%  0%  2%  0%
[libx264 @ 000002143b891780] i8 v,h,dc,ddl,ddr,vr,hd,vl,hu: 27% 14% 59%  0%  0%  0%  0%  0%  0%
[libx264 @ 000002143b891780] i4 v,h,dc,ddl,ddr,vr,hd,vl,hu: 36% 15% 30%  6%  4%  4%  2%  3%  0%
[libx264 @ 000002143b891780] i8c dc,h,v,p: 100%  0%  0%  0%
[libx264 @ 000002143b891780] Weighted P-Frames: Y:0.0% UV:0.0%
[libx264 @ 000002143b891780] ref P L0: 92.1%  0.1%  5.2%  2.6%
[libx264 @ 000002143b891780] ref B L0: 75.6% 20.3%  4.1%
[libx264 @ 000002143b891780] ref B L1: 87.7% 12.3%
[libx264 @ 000002143b891780] kb/s:529.53
